<?xml version="1.0" standalone="no"?><!DOCTYPE svg PUBLIC "-//W3C//DTD SVG 1.1//EN" "http://www.w3.org/Graphics/SVG/1.1/DTD/svg11.dtd"><svg t="1731375418194" class="icon" viewBox="0 0 1024 1024" version="1.1" xmlns="http://www.w3.org/2000/svg" p-id="2803" xmlns:xlink="http://www.w3.org/1999/xlink" width="200" height="200"><path d="M875.52 422.5024h-151.7568v-42.1888h151.7568c35.6352 0 64.512-28.8768 64.512-64.512v-208.896c0-35.6352-28.8768-64.512-64.512-64.512h-727.04C112.8448 42.1888 83.968 71.2704 83.968 106.9056v208.896c0 35.6352 28.8768 64.512 64.512 64.512h229.376v42.1888h-229.376c-58.9824 0-106.9056-47.9232-106.9056-106.9056v-208.896C41.7792 47.9232 89.4976 0 148.48 0h727.04c58.9824 0 106.9056 47.9232 106.9056 106.9056v208.896c-0.2048 58.7776-47.9232 106.7008-106.9056 106.7008z" p-id="2804"></path><path d="M551.7312 234.7008c34.816 0 62.2592 27.4432 62.2592 62.2592v251.0848h263.5776c26.0096 0 45.4656 17.8176 45.4656 41.3696v346.9312c0 27.2384-23.552 45.4656-45.4656 45.4656H509.5424L274.8416 680.3456c-6.7584-16.5888-16.9984-55.0912-2.4576-69.4272l1.8432-1.8432 1.6384-2.048c7.3728-9.4208 18.0224-14.7456 29.9008-14.7456 10.24 0 20.48 4.096 29.0816 11.264l7.3728 7.3728 2.8672 2.8672 3.4816 2.2528 75.1616 50.176 65.7408 43.8272V296.96c0-35.0208 27.2384-62.2592 62.2592-62.2592m0-42.1888c-58.5728 0-104.448 45.8752-104.448 104.448v334.2336l-75.1616-50.176-8.3968-8.3968c-17.2032-15.1552-37.6832-22.7328-57.9584-22.7328-23.9616 0-47.3088 10.6496-63.2832 30.9248-41.7792 41.7792-4.096 121.2416-4.096 121.2416L489.0624 1024h388.7104c45.8752 0 87.6544-37.6832 87.6544-87.6544V589.4144c0-45.8752-37.6832-83.5584-87.6544-83.5584H656.1792V296.96c0-58.5728-46.08-104.448-104.448-104.448z" p-id="2805"></path></svg>